<svg xmlns="http://www.w3.org/2000/svg" width="182" height="22" viewBox="0 0 182 22">
    <g fill="none" fill-rule="evenodd">
        <path d="M0 0h182v22H0z"/>
        <path fill="#434D5B" d="M155.018 19.223c-.978 0-3.026-.032-2.445-1.957l1.039-3.599h3.3l-1.894 5.556zm20.523 0l2.72-8.018h-8.25l1.252-3.756h-2.414c-2.078 0-4.767.947-4.767 3.535 0 1.294.856 2.4 2.078 2.683l-1.956 5.556h-3.87l2.813-8.018h-8.526c-3.943 0-7.732 2.24-7.732 6.786 0 .438.055.85.158 1.232h-8.92c-.885 0-2.321-.284-1.833-1.831l1.222-3.725h3.148l-1.62 3.315h4.951c.886-.6 1.59-1.484 1.528-2.746-.122-2.431-3.423-3.03-5.317-3.03h-2.17c-3.453 0-7.547 1.799-7.547 5.965 0 3.914 4.339 4.513 7.241 4.513h8.312c.76 0 1.54-.182 2.199-.554.664.554 1.541.87 2.56.87 1.558 0 2.994-.726 4.003-1.925 0 1.325 1.405 1.61 2.414 1.61h6.258c1.76 0 3.097-.593 3.655-2.424l2.115-5.594h3.178l-1.68 5.019c-.55 1.704.153 2.998 2.077 2.998h5.715c1.283 0 3.27-.915 3.27-2.461h-6.265zM134.777 4.86c0-3.914-3.18-4.861-7.243-4.861h-17.418l-2.292 3.883h17.449c1.558 0 3.514.41 3.514 2.367 0 2.556-2.444 3.819-4.125 4.64-.703.347-1.284.536-1.62 1.326-.03.094-.03.22-.03.315 0 .947 1.192 1.736 1.192 2.999 0 3.25-4.768 3.693-7.09 3.693h-.764l4.583-13.352h-5.378l-4.54 13.352h-5.083l1.925-5.556c.52-1.515.245-2.872-1.65-2.872-1.68 0-2.659.6-3.606 1.42L98.14 16.13l1.07-3.062c.642-1.8-.641-2.273-1.589-2.273-1.833 0-2.903.663-3.85 1.452l-4.584 3.883 1.681-4.925h-5.378l-2.736 8.018h-8.84c-.885 0-2.322-.284-1.833-1.831l1.223-3.725h3.147l-1.62 3.315h4.95c.887-.6 1.59-1.484 1.529-2.746-.122-2.431-3.423-3.03-5.317-3.03h-2.17c-3.453 0-7.548 1.799-7.548 5.965 0 .825.201 1.496.533 2.052h-4.639l1.925-5.556c.52-1.515.245-2.872-1.65-2.872-1.68 0-2.658.6-3.606 1.42l-4.461 3.915 1.07-3.062c.641-1.8-.642-2.273-1.59-2.273-1.833 0-2.903.663-3.85 1.452l-4.584 3.883 1.681-4.925h-5.378l-2.735 8.018h-8.632c-.886 0-2.322-.284-1.833-1.831l1.222-3.725h3.148l-1.62 3.315h4.95c.887-.6 1.59-1.484 1.528-2.746-.122-2.431-3.422-3.03-5.317-3.03h-2.17c-3.452 0-7.547 1.799-7.547 5.965 0 .825.201 1.496.533 2.052H19.71l-2.69-5.998c2.995-1.2 8.435-3.819 8.435-7.89C25.455.6 20.443 0 17.357 0H2.322L0 3.883h15.217c1.773 0 3.76.505 3.76 2.746 0 1.736-1.223 3.061-2.965 3.976-.61.348-4.217 1.737-4.98 1.894l2.933 6.724c.672 1.577 1.07 2.461 2.811 2.461h5.467c.928 0 1.917-.344 2.528-1.03 1.51.843 3.572 1.03 5.19 1.03h11.244c.734 0 1.345-.189 1.895-.662l5.928-5.114c-.336.978-1.192 3.315-1.192 3.315-.397 1.073-.488 2.682 1.803 2.682 1.498 0 2.506-.978 3.27-1.641l5.042-4.356c-.336 1.01-.978 3.315-.978 3.315-.366 1.23.795 2.461 1.864 2.461h6.584c1.085 0 2.127-.339 2.776-1.107 1.52.907 3.655 1.107 5.32 1.107h8.312l.085-.002v.002h3.055c.734 0 1.345-.189 1.894-.662l5.929-5.114c-.336.978-1.192 3.315-1.192 3.315-.397 1.073-.489 2.682 1.804 2.682 1.497 0 2.505-.978 3.269-1.641l5.042-4.356c-.336 1.01-.978 3.315-.978 3.315-.367 1.23.794 2.461 1.864 2.461h15.338c3.79 0 11.459-1.04 11.459-6.249 0-1.326-.52-2.588-1.161-3.725 2.567-1.294 6.54-3.408 6.54-6.849zM7.73 5.871L2.322 21.684h5.379L13.14 5.871H7.731z"/>
    </g>
</svg>
