<svg xmlns="http://www.w3.org/2000/svg" width="138" height="32" viewBox="0 0 138 32"><g fill="none" fill-rule="evenodd"><path fill="#FFC700" d="M28.423 20.171l-4.987-4.125 4.987-4.125 1.551 1.885-2.708 2.24 2.708 2.24-1.551 1.885zm-1.896 4.613l-6.054-4.843H15.44v9.904h-2.438V17.497h8.323l6.722 5.377-1.52 1.91zm-3.593 3.262l-2.726-2.248v3.423l-2.438.624v-7.567l1.993-.01 5.194 4.28-2.023 1.498zm-12.313-2.05l-2.438 2.126V4.183l2.438 2.127v19.686zm-4.775-2.928l-2.438-2.08v-9.294L5.846 9.45v13.617zm7.157-20.82h2.438v9.903h5.032l6.054-4.843 1.521 1.91-6.722 5.377h-8.323V2.247zm4.767.332l2.438.624v3.423l2.726-2.248 2.023 1.498-5.194 4.28-1.993-.01V2.58zM15.974.225C7.258.225.192 7.308.192 16.045c0 8.739 7.066 15.822 15.782 15.822 8.717 0 15.783-7.083 15.783-15.821S24.691.225 15.974.225z"/><path fill="#FFFFFE" d="M59.304 16.981h6.854l1.371-2.304h-8.225v-3.193h8.192l1.37-2.305H56.628v13.733H69.14v-2.304h-9.836v-3.627m15.602 0h6.855l1.371-2.304h-8.226v-3.193h8.192l1.371-2.305H72.23v13.733h12.513v-2.304h-9.837v-3.627m32.242 0h6.855l1.371-2.304h-8.226v-3.193h8.192l1.371-2.305h-12.239v13.733h12.513v-2.304h-9.837v-3.627M53.67 9.18h-3.54l-6.849 6.866 6.85 6.866h3.538a54079.89 54079.89 0 01-6.85-6.866l6.85-6.867M39.588 22.912h2.676V9.179h-2.676zm90.475-5.591c2.016-.113 3.825-1.51 3.825-4.042 0-3.363-2.336-4.1-5.578-4.1h-8.235v13.733h2.676V11.41h5.163c2.187 0 3.298.32 3.298 1.926 0 1.625-1.111 1.946-3.298 1.946h-2.78l-1.316 2.229h3.173l3.976 5.402h3.299l-4.203-5.59M95.466 9.178h-7.633v13.733h2.676V11.484h5.541c1.525 0 2.864.132 2.864 1.89 0 1.775-1.34 1.907-2.864 1.907h-3.159l-1.371 2.305h3.946c2.317 0 6.124 0 6.124-4.194 0-4.213-3.807-4.213-6.124-4.213"/><g fill="#FFF"><path d="M135.986 6.766l.501.684h-.292l-.478-.666h-.288v.666h-.272V5.9h.678c.207 0 .362.037.462.11.1.073.15.184.15.334 0 .14-.044.241-.133.306a.647.647 0 01-.328.116zm-.098-.183a.513.513 0 00.147-.03.23.23 0 00.101-.076.242.242 0 00.038-.144.203.203 0 00-.034-.125.225.225 0 00-.088-.07.407.407 0 00-.124-.034 1.057 1.057 0 00-.138-.008h-.36v.492h.283a2.7 2.7 0 00.175-.005z"/><path d="M137 6.67c0 .192-.035.368-.106.53-.07.162-.167.302-.286.422-.121.12-.261.213-.422.279-.16.065-.33.098-.512.098a1.345 1.345 0 01-.94-.377 1.321 1.321 0 01-.394-.952 1.29 1.29 0 01.394-.94 1.33 1.33 0 01.94-.379A1.32 1.32 0 01137 6.67zm-.24 0a1.16 1.16 0 00-.084-.443 1.064 1.064 0 00-.574-.594 1.058 1.058 0 00-.429-.088 1.083 1.083 0 00-.779.325c-.098.1-.175.22-.23.357a1.16 1.16 0 00-.083.443c0 .163.028.314.083.452a1.082 1.082 0 00.576.6c.134.057.278.086.433.086.154 0 .297-.03.429-.086a1.081 1.081 0 00.574-.6c.056-.138.084-.289.084-.452z"/></g></g></svg>