<svg width="217" height="83" viewBox="0 0 217 83" fill="none" xmlns="http://www.w3.org/2000/svg">
<path d="M0 81.3759V1.08594H11.87V37.5149H15.6178V33.4214H19.6375V29.3278H23.669V25.3405H27.6887V21.3531H31.5075V17.2595H35.5272V13.1542H39.5587V9.16684H43.5784V5.17948H47.3971V1.08594H63.2868V5.17948H59.2671V9.28481H55.342V13.3784H51.4169V17.2595H47.3971V21.3531H43.3656V25.4466H39.4523V29.5402H35.5272V33.4214H31.5075L31.7794 40.5939H35.8109V44.6874H39.8306V48.6748H43.8622V52.7801H47.6691V56.8737H51.7006V60.9672H55.7203V64.8484H59.7518V68.942H63.5587V73.0355H67.5903V77.129H71.61V81.3759H55.7203V76.9167H51.7006V72.9293H47.6691V68.942H43.6493V64.8484H39.7242V60.7549H35.8109V56.7675H31.7794V52.7801H27.7597V48.6748H23.8345V44.5813H19.9212V48.6748H15.8897V52.7801H11.87V81.3759H0Z" fill="#010202"/>
<path d="M110.634 69.2258V65.1048H118.703V60.9837H122.797V56.9696H126.891V48.8345H130.974V32.5643H126.891V24.4291H122.797V20.415H118.703V16.294H110.634V12.173H98.4716V16.294H90.4031V20.415H86.4168V24.536H82.3346V32.5643H78.3483V48.8345H82.4306V56.9696H86.4168V61.0906H90.4991V65.1048H98.5676V69.2258H110.634ZM94.4974 81.375V77.254H82.3346V73.2399H78.3483V69.2258H74.2661V65.1048H70.2798V56.9696H66.1855V24.4054H70.2798V16.2703H74.3621V12.1492H78.4444V8.13513H82.5387V4.12101H94.5934V0H114.825V4.12101H126.879V8.24201H130.962V12.363H135.056V16.2703H139.138V24.4054H143.221V56.9577H139.138V65.0929H134.84V69.2139H130.758V73.3349H126.663V77.4559H114.621V81.3631H94.4974V81.375Z" fill="#010202"/>
<path fill-rule="evenodd" clip-rule="evenodd" d="M176.391 1.08594H196.695H208.939V13.2513V70.2956H217V82.4609H208.939H196.695H147.005H143.944H139.965V74.3848H143.944V70.2956H147.821V62.1172H151.801V53.9388H155.984V45.7604H160.065V37.6842H164.249V29.5058H168.126V21.4297H172.309V9.26433H176.391V1.08594ZM196.695 70.2956V13.2513H184.553V21.4297H180.37V29.5058H176.391V37.6842H172.207V45.7604H168.126V53.9388H164.045V62.1172H160.065V70.2956H196.695Z" fill="black"/>
</svg>
